<svg xmlns="http://www.w3.org/2000/svg" viewBox="0 0 290 80"><defs><style>.cls-1{fill:#434343;}.cls-2{fill:#2086ae;}.cls-3{fill:none;}</style></defs><g id="Layer_2" data-name="Layer 2"><g id="Layer_1-2" data-name="Layer 1"><path class="cls-1" d="M115.72,61.21V22.05h16.95a22,22,0,0,1,9.07,1.7,13.29,13.29,0,0,1,5.87,4.9,13.65,13.65,0,0,1,2.07,7.61,13.44,13.44,0,0,1-2.07,7.52,13.17,13.17,0,0,1-5.87,4.84,22.35,22.35,0,0,1-9.07,1.68H120.76l4-4V61.21Zm9.07-13.88-4-4.25h11.41q4.2,0,6.27-1.82a6.31,6.31,0,0,0,2.07-5,6.3,6.3,0,0,0-2.07-5q-2.07-1.78-6.27-1.79H120.76l4-4.31Zm15.83,13.88L130.83,47h9.68l9.9,14.21Z"/><path class="cls-2" d="M183.86,53.94v7.27H154.77V55.43l14.85-14c3.41-3.25,4-5.23,4-7.1,0-3-2.09-4.78-6.16-4.78a9.39,9.39,0,0,0-8,3.85L153,29.2c3-4.35,8.36-7.15,15.29-7.15,8.58,0,14.3,4.4,14.3,11.38,0,3.74-1,7.15-6.44,12.16l-8.85,8.35Z"/><path class="cls-1" d="M186.2,61.21l16.87-23.27v6.62L186.93,22h10.31L208.4,37.72l-4.32.06,11-15.81h9.86l-16,22.2V37.66l17,23.55H215.4L203.86,44.56H208L196.63,61.21Z"/><polygon class="cls-1" points="103.35 33.84 103.35 21.97 91.48 21.97 103.35 33.84"/><path class="cls-1" d="M97.11,36.43V50.56L74.76,28.21H88.89L82.66,22H64.12V61.21h39.23V42.66ZM70.35,55V32.62L92.7,55Z"/><polygon class="cls-2" points="107.15 18.8 88.32 18.8 107.15 37.62 107.15 18.8"/><rect class="cls-3" width="290" height="80"/></g></g></svg>