<svg xmlns="http://www.w3.org/2000/svg" viewBox="0 0 290 80"><defs><style>.cls-1{fill:#434343;}.cls-2{fill:#2086ae;}.cls-3{fill:none;}</style></defs><g id="Layer_2" data-name="Layer 2"><g id="Layer_1-2" data-name="Layer 1"><path class="cls-1" d="M102.75,40V21.92h7.85a10.27,10.27,0,0,1,4.19.78A6.18,6.18,0,0,1,117.51,25a6.31,6.31,0,0,1,1,3.52,6.18,6.18,0,0,1-1,3.48,6.05,6.05,0,0,1-2.72,2.24,10.27,10.27,0,0,1-4.19.78h-5.52L107,33.15V40Zm4.2-6.42-1.87-2h5.29a4.31,4.31,0,0,0,2.9-.84,2.94,2.94,0,0,0,1-2.32,2.94,2.94,0,0,0-1-2.33,4.36,4.36,0,0,0-2.9-.83h-5.29l1.87-2ZM114.28,40l-4.54-6.58h4.48L118.81,40Z"/><path class="cls-1" d="M130.59,40.35a11,11,0,0,1-4-.7,9.39,9.39,0,0,1-3.16-2,8.88,8.88,0,0,1-2.07-3,9.75,9.75,0,0,1,0-7.45,8.89,8.89,0,0,1,2.09-3,9.71,9.71,0,0,1,3.15-2,11.47,11.47,0,0,1,7.89,0,9.62,9.62,0,0,1,3.13,2,9.22,9.22,0,0,1,2.08,3,9.12,9.12,0,0,1,.75,3.74,9.29,9.29,0,0,1-.75,3.74,8.81,8.81,0,0,1-2.08,3,9.6,9.6,0,0,1-3.13,2A10.67,10.67,0,0,1,130.59,40.35Zm0-3.57a5.84,5.84,0,0,0,2.24-.42,5.36,5.36,0,0,0,3-3,6.66,6.66,0,0,0,0-4.71,5.46,5.46,0,0,0-1.19-1.84,5.24,5.24,0,0,0-1.8-1.19,6.12,6.12,0,0,0-2.25-.41,6,6,0,0,0-2.24.41,5.43,5.43,0,0,0-1.8,1.19,5.33,5.33,0,0,0-1.2,1.84,6.64,6.64,0,0,0,0,4.7,5.4,5.4,0,0,0,1.19,1.85,5.1,5.1,0,0,0,1.8,1.19A5.93,5.93,0,0,0,130.56,36.78Z"/><path class="cls-1" d="M151.68,40.35a8.22,8.22,0,0,1-6-2.15,8.24,8.24,0,0,1-2.17-6.14V21.92h4.19v10a5.43,5.43,0,0,0,1.06,3.73,4.46,4.46,0,0,0,6,0,5.38,5.38,0,0,0,1.06-3.73v-10h4.14V32.06a8.24,8.24,0,0,1-2.17,6.14A8.23,8.23,0,0,1,151.68,40.35Z"/><path class="cls-1" d="M167.48,40V25.33h-5.8V21.92h15.79v3.41h-5.8V40Z"/><path class="cls-1" d="M183.89,36.67h9.86V40h-14V21.92h13.7v3.36h-9.53Zm-.31-7.45h8.72v3.26h-8.72Z"/><path class="cls-1" d="M208.21,40.05l-.06-14.71-5.79,0,0-3.42,15.8-.05V25.3l-5.8,0L212.4,40Z"/><path class="cls-1" d="M229,40.35a10.94,10.94,0,0,1-4-.7,9.39,9.39,0,0,1-3.16-2,8.88,8.88,0,0,1-2.07-3,9.75,9.75,0,0,1,0-7.45,9,9,0,0,1,2.08-3,9.76,9.76,0,0,1,3.16-2,11.47,11.47,0,0,1,7.89,0,9.62,9.62,0,0,1,3.13,2,9.22,9.22,0,0,1,2.08,3,9.12,9.12,0,0,1,.75,3.74,9.29,9.29,0,0,1-.75,3.74,8.81,8.81,0,0,1-2.08,3,9.6,9.6,0,0,1-3.13,2A10.68,10.68,0,0,1,229,40.35Zm0-3.57a5.84,5.84,0,0,0,2.24-.42,5.29,5.29,0,0,0,1.8-1.19,5.48,5.48,0,0,0,1.2-1.84,6.66,6.66,0,0,0,0-4.71A5.46,5.46,0,0,0,233,26.78a5.24,5.24,0,0,0-1.8-1.19,6.12,6.12,0,0,0-2.25-.41,6,6,0,0,0-2.24.41,5.43,5.43,0,0,0-1.8,1.19,5.33,5.33,0,0,0-1.2,1.84,6.64,6.64,0,0,0,0,4.7,5.4,5.4,0,0,0,1.19,1.85,4.93,4.93,0,0,0,1.8,1.19A5.93,5.93,0,0,0,228.94,36.78Z"/><path class="cls-1" d="M106.92,57.84h9.87v3.37h-14V43.08h13.7v3.37h-9.53Zm-.31-7.46h8.73v3.27h-8.73Z"/><path class="cls-2" d="M123.65,61.21l7.79-10.75v3.06L124,43.08h4.76l5.15,7.28-2,0,5.07-7.3h4.56l-7.4,10.26v-3L142,61.21h-4.84l-5.33-7.69h1.91l-5.25,7.69Z"/><path class="cls-1" d="M148.85,61.21V43.08h7.84a10.35,10.35,0,0,1,4.2.79,6.08,6.08,0,0,1,2.71,2.27,6.31,6.31,0,0,1,1,3.52,6.23,6.23,0,0,1-1,3.49,6.08,6.08,0,0,1-2.71,2.27,10.19,10.19,0,0,1-4.2.79h-5.51L153,54.32v6.89ZM153,54.78l-1.86-2h5.28a4.31,4.31,0,0,0,2.9-.83,2.87,2.87,0,0,0,1-2.3,2.91,2.91,0,0,0-1-2.33,4.36,4.36,0,0,0-2.9-.83h-5.28l1.86-2Z"/><path class="cls-1" d="M181.37,61.21a11.11,11.11,0,0,1-4-.7,9.55,9.55,0,0,1-3.16-2,9,9,0,0,1-2.07-3,9.75,9.75,0,0,1,0-7.45,8.76,8.76,0,0,1,2.08-3,9.59,9.59,0,0,1,3.16-2,11.44,11.44,0,0,1,7.88,0,9.46,9.46,0,0,1,3.13,2,9,9,0,0,1,2.84,6.7,9.22,9.22,0,0,1-.75,3.74,9,9,0,0,1-2.09,3,9.6,9.6,0,0,1-3.13,2A10.88,10.88,0,0,1,181.37,61.21Zm0-3.58a6,6,0,0,0,2.24-.41,5.43,5.43,0,0,0,1.8-1.19,5.51,5.51,0,0,0,1.21-1.84,6.81,6.81,0,0,0,0-4.71,5.64,5.64,0,0,0-1.2-1.84,5,5,0,0,0-1.79-1.19,6,6,0,0,0-2.26-.42,5.88,5.88,0,0,0-2.24.42,5.29,5.29,0,0,0-1.8,1.19,5.64,5.64,0,0,0-1.2,1.84,6.34,6.34,0,0,0-.43,2.35,6.42,6.42,0,0,0,.43,2.35A5.66,5.66,0,0,0,177.29,56a5.24,5.24,0,0,0,1.8,1.19A6.12,6.12,0,0,0,181.34,57.63Z"/><path class="cls-1" d="M198.12,61.21V43.08H206a10.27,10.27,0,0,1,4.19.79,6.11,6.11,0,0,1,2.72,2.27,6.31,6.31,0,0,1,1,3.52,6.18,6.18,0,0,1-1,3.48,6.05,6.05,0,0,1-2.72,2.24,10.27,10.27,0,0,1-4.19.78h-5.52l1.87-1.84v6.89Zm4.2-6.43-1.87-2h5.29a4.31,4.31,0,0,0,2.9-.84,3.32,3.32,0,0,0,0-4.65,4.36,4.36,0,0,0-2.9-.83h-5.29l1.87-2Zm7.33,6.43-4.54-6.58h4.48l4.59,6.58Z"/><path class="cls-1" d="M226.84,61.21V46.5H221V43.08h15.79V46.5H231V61.21Z"/><polygon points="90.38 33.84 90.38 21.97 78.51 21.97 90.38 33.84"/><path class="cls-1" d="M84.15,36.43V50.56L61.79,28.21H75.92L69.69,22H51.15V61.21H90.38V42.66ZM57.38,55V32.62L79.74,55Z"/><polygon class="cls-2" points="94.18 18.8 75.35 18.8 94.18 37.62 94.18 18.8"/><rect class="cls-3" width="290" height="80"/></g></g></svg>