<svg xmlns="http://www.w3.org/2000/svg" viewBox="0 0 290 60"><defs><style>.cls-1{fill:#fff;}.cls-2{fill:none;}</style></defs><g id="Layer_2" data-name="Layer 2"><g id="Isolation_Mode" data-name="Isolation Mode"><path class="cls-1" d="M113.32,30V16.44h5.88a7.52,7.52,0,0,1,3.14.59,4.57,4.57,0,0,1,2,1.7,4.74,4.74,0,0,1,.72,2.64,4.44,4.44,0,0,1-2.76,4.29,7.69,7.69,0,0,1-3.14.58h-4.14l1.4-1.38V30Zm3.14-4.82-1.4-1.47h4a3.22,3.22,0,0,0,2.18-.63,2.19,2.19,0,0,0,.72-1.74,2.2,2.2,0,0,0-.72-1.75A3.28,3.28,0,0,0,119,19h-4l1.4-1.5ZM122,30l-3.4-4.93h3.36L125.35,30Z"/><path class="cls-1" d="M134.19,30.26a8.22,8.22,0,0,1-3-.52,7,7,0,0,1-2.37-1.48A6.54,6.54,0,0,1,127.29,26a7,7,0,0,1-.56-2.8,6.92,6.92,0,0,1,.56-2.79,6.61,6.61,0,0,1,1.56-2.24,7.18,7.18,0,0,1,2.37-1.47,8.5,8.5,0,0,1,5.91,0,7.19,7.19,0,0,1,2.35,1.47A6.81,6.81,0,0,1,141,20.43a6.74,6.74,0,0,1,.57,2.8A6.89,6.89,0,0,1,141,26a6.61,6.61,0,0,1-1.56,2.23,7.19,7.19,0,0,1-2.35,1.47A8,8,0,0,1,134.19,30.26Zm0-2.68a4.37,4.37,0,0,0,1.68-.31,4.07,4.07,0,0,0,1.35-.89,4,4,0,0,0,.9-1.38,5,5,0,0,0,0-3.53,4.05,4.05,0,0,0-.89-1.38,3.9,3.9,0,0,0-1.35-.9,4.66,4.66,0,0,0-1.69-.31,4.57,4.57,0,0,0-1.68.31,4.1,4.1,0,0,0-1.35.9,3.93,3.93,0,0,0-.9,1.38,5,5,0,0,0,0,3.52,4.09,4.09,0,0,0,.89,1.39,3.88,3.88,0,0,0,1.35.89A4.46,4.46,0,0,0,134.17,27.58Z"/><path class="cls-1" d="M150,30.26a6.17,6.17,0,0,1-4.52-1.61,6.17,6.17,0,0,1-1.63-4.6V16.44H147v7.49a4,4,0,0,0,.8,2.8,2.89,2.89,0,0,0,2.23.85,2.92,2.92,0,0,0,2.24-.85,4,4,0,0,0,.79-2.8V16.44h3.11v7.61a6.17,6.17,0,0,1-1.63,4.6A6.19,6.19,0,0,1,150,30.26Z"/><path class="cls-1" d="M161.86,30V19h-4.35V16.44h11.84V19H165V30Z"/><path class="cls-1" d="M174.17,27.5h7.4V30H171V16.44h10.27V19h-7.14Zm-.23-5.59h6.54v2.45h-6.54Z"/><path class="cls-1" d="M192.4,30l0-11H188V16.46l11.84,0V19h-4.35l0,11Z"/><path class="cls-1" d="M208,30.26a8.26,8.26,0,0,1-3-.52,7,7,0,0,1-2.37-1.48A6.83,6.83,0,0,1,201.07,26a7,7,0,0,1-.55-2.8,6.91,6.91,0,0,1,.55-2.79,6.75,6.75,0,0,1,1.56-2.24A7.39,7.39,0,0,1,205,16.73a8.5,8.5,0,0,1,5.91,0,7.09,7.09,0,0,1,2.35,1.47,7,7,0,0,1,1.57,2.23,6.9,6.9,0,0,1,.56,2.8,7,7,0,0,1-.56,2.81,6.78,6.78,0,0,1-1.57,2.23,7.09,7.09,0,0,1-2.35,1.47A8,8,0,0,1,208,30.26Zm0-2.68a4.37,4.37,0,0,0,1.68-.31,4.07,4.07,0,0,0,1.35-.89,4.2,4.2,0,0,0,.91-1.38,5,5,0,0,0,0-3.53,4.23,4.23,0,0,0-.9-1.38,3.9,3.9,0,0,0-1.35-.9,4.66,4.66,0,0,0-1.69-.31,4.57,4.57,0,0,0-1.68.31A4.07,4.07,0,0,0,204,21.47,5,5,0,0,0,204,25a3.93,3.93,0,0,0,2.24,2.28A4.46,4.46,0,0,0,208,27.58Z"/><path class="cls-1" d="M116.44,43.38h7.4V45.9H113.32V32.31h10.27v2.53h-7.15Zm-.23-5.59h6.54v2.44h-6.54Z"/><path class="cls-1" d="M129,45.9l5.84-8v2.29l-5.59-7.83h3.57l3.87,5.46-1.5,0L139,32.31h3.42L136.85,40V37.75l5.89,8.15h-3.63l-4-5.76h1.43L132.6,45.9Z"/><path class="cls-1" d="M147.89,45.9V32.31h5.88a7.68,7.68,0,0,1,3.14.59,4.9,4.9,0,0,1,2,7,4.62,4.62,0,0,1-2,1.69,7.52,7.52,0,0,1-3.14.6h-4.14l1.4-1.42V45.9ZM151,41.09l-1.4-1.5h4a3.24,3.24,0,0,0,2.18-.62,2.45,2.45,0,0,0,0-3.47,3.24,3.24,0,0,0-2.18-.62h-4l1.4-1.5Z"/><path class="cls-1" d="M172.28,45.9a8.22,8.22,0,0,1-3-.52,6.85,6.85,0,0,1-2.37-1.48,6.61,6.61,0,0,1-1.56-2.23,7.38,7.38,0,0,1,0-5.59,6.5,6.5,0,0,1,1.57-2.23,7,7,0,0,1,2.37-1.48,8.66,8.66,0,0,1,5.91,0,7.06,7.06,0,0,1,2.35,1.48,7.11,7.11,0,0,1,1.56,7.83,6.65,6.65,0,0,1-1.56,2.23,7.19,7.19,0,0,1-2.35,1.47A8,8,0,0,1,172.28,45.9Zm0-2.68a4.37,4.37,0,0,0,1.68-.31,3.92,3.92,0,0,0,1.35-.89,4.17,4.17,0,0,0,.9-1.38,5,5,0,0,0,0-3.53,4.15,4.15,0,0,0-.89-1.38,3.92,3.92,0,0,0-1.35-.89,4.46,4.46,0,0,0-1.69-.31,4.37,4.37,0,0,0-1.68.31,3.92,3.92,0,0,0-1.35.89,4,4,0,0,0-.9,1.38,5,5,0,0,0,0,3.52,4.09,4.09,0,0,0,.89,1.39,3.74,3.74,0,0,0,1.35.89A4.46,4.46,0,0,0,172.26,43.22Z"/><path class="cls-1" d="M184.84,45.9V32.31h5.89a7.72,7.72,0,0,1,3.14.59,4.89,4.89,0,0,1,2,7,4.6,4.6,0,0,1-2,1.68,7.89,7.89,0,0,1-3.14.58h-4.14l1.4-1.38V45.9ZM188,41.09l-1.4-1.48h4a3.24,3.24,0,0,0,2.18-.63,2.19,2.19,0,0,0,.72-1.74,2.16,2.16,0,0,0-.72-1.74,3.24,3.24,0,0,0-2.18-.62h-4l1.4-1.5Zm5.49,4.81L190.09,41h3.36l3.43,4.93Z"/><path class="cls-1" d="M206.38,45.9v-11H202V32.31h11.85v2.57h-4.35v11Z"/><path class="cls-1" d="M99.36,27.32v10.6L82.6,21.15H93.19l-4.67-4.67H74.61V45.9H104V32ZM79.29,41.23V24.46L96.05,41.23Z"/><polygon class="cls-1" points="106.88 14.1 92.77 14.1 106.88 28.21 106.88 14.1"/><rect class="cls-2" width="290" height="60"/></g></g></svg>