<svg xmlns="http://www.w3.org/2000/svg" viewBox="0 0 1197.41 274.7"><defs><style>.cls-1{fill:#ff1a8d;}</style></defs><g id="Layer_2" data-name="Layer 2"><g id="Layer_1-2" data-name="Layer 1"><path d="M315.88,137.59V20.21h50.81q15.76,0,27.17,5.12A39.75,39.75,0,0,1,411.46,40q6.21,9.55,6.21,22.81,0,13.08-6.21,22.55a39.35,39.35,0,0,1-17.6,14.5q-11.42,5-27.17,5H331L343.05,93v44.6ZM343.05,96,331,83.26h34.21q12.58,0,18.78-5.45t6.21-15q0-9.73-6.21-15.1t-18.78-5.36H331l12.08-12.91Zm47.45,41.58L361.16,95h29l29.68,42.59Z"/><path d="M496.14,139.61a71.34,71.34,0,0,1-25.74-4.53,61,61,0,0,1-20.46-12.75,58.19,58.19,0,0,1-13.41-19.28,60.21,60.21,0,0,1-4.78-24.15,60.16,60.16,0,0,1,4.78-24.14A57.57,57.57,0,0,1,450,35.47a62.1,62.1,0,0,1,20.46-12.74,74.21,74.21,0,0,1,51.06,0,61.44,61.44,0,0,1,20.29,12.74,61.28,61.28,0,0,1,13.5,67.66,58.23,58.23,0,0,1-13.5,19.29,62.07,62.07,0,0,1-20.29,12.66A69.55,69.55,0,0,1,496.14,139.61ZM496,116.47a38.28,38.28,0,0,0,14.51-2.69,34.6,34.6,0,0,0,11.65-7.71,35,35,0,0,0,7.8-11.91A40.38,40.38,0,0,0,532.7,78.9a40.49,40.49,0,0,0-2.77-15.26,35.89,35.89,0,0,0-7.71-11.9A33.54,33.54,0,0,0,510.56,44,38.88,38.88,0,0,0,496,41.34,38.23,38.23,0,0,0,481.47,44a34.45,34.45,0,0,0-11.65,7.71,35,35,0,0,0-7.8,11.9,40.49,40.49,0,0,0-2.77,15.26A40.62,40.62,0,0,0,462,94.08a35.53,35.53,0,0,0,7.71,12,33.59,33.59,0,0,0,11.66,7.71A38.86,38.86,0,0,0,496,116.47Z"/><path d="M632.81,139.61q-25,0-39.07-13.92T579.65,86V20.21h27.17V84.94q0,16.77,6.87,24.15T633,116.47q12.42,0,19.29-7.38t6.87-24.15V20.21H686V86q0,25.81-14.08,39.74T632.81,139.61Z"/><path d="M735.1,137.59V42.35H697.53V20.21H799.82V42.35H762.26v95.24Z"/><path d="M841.41,115.8H905.3v21.79H814.41V20.21h88.71V42H841.41Zm-2-48.3h56.51V88.63H839.4Z"/><path d="M998.9,137.64l-.33-95.24L961,42.53l-.08-22.13L1063.21,20l.08,22.14-37.56.13.34,95.25Z"/><path d="M1133.35,139.61a71.34,71.34,0,0,1-25.74-4.53,61,61,0,0,1-20.46-12.75,57.9,57.9,0,0,1-13.41-19.28A60.21,60.21,0,0,1,1069,78.9a60.16,60.16,0,0,1,4.78-24.14,57.43,57.43,0,0,1,13.5-19.29,62.16,62.16,0,0,1,20.45-12.74,74.21,74.21,0,0,1,51.06,0A61.34,61.34,0,0,1,1179,35.47a58.55,58.55,0,0,1,18.37,43.43,60,60,0,0,1-4.87,24.23,57.94,57.94,0,0,1-13.5,19.29,62,62,0,0,1-20.29,12.66A69.54,69.54,0,0,1,1133.35,139.61Zm-.17-23.14a38.28,38.28,0,0,0,14.51-2.69,34.7,34.7,0,0,0,11.65-7.71,35.29,35.29,0,0,0,7.8-11.91,40.57,40.57,0,0,0,2.77-15.26,40.68,40.68,0,0,0-2.77-15.26,35.91,35.91,0,0,0-7.72-11.9A33.41,33.41,0,0,0,1147.77,44a38.88,38.88,0,0,0-14.59-2.69,38.23,38.23,0,0,0-14.5,2.69A34.59,34.59,0,0,0,1107,51.74a35.17,35.17,0,0,0-7.79,11.9,40.49,40.49,0,0,0-2.77,15.26,40.62,40.62,0,0,0,2.77,15.18,35.53,35.53,0,0,0,7.71,12,33.55,33.55,0,0,0,11.65,7.71A38.92,38.92,0,0,0,1133.18,116.47Z"/><path d="M342.88,252.9h63.89v21.8H315.88V157.32h88.71v21.8H342.88Zm-2-48.29h56.51v21.12H340.87Z"/><path class="cls-1" d="M451.24,274.7l50.47-69.59V224.9l-48.29-67.58h30.85l33.37,47.12-12.91.17,32.87-47.29h29.51l-48,66.4V204.27L570,274.7H538.6l-34.54-49.8h12.41l-34,49.8Z"/><path d="M614.43,274.7V157.32h50.81q15.75,0,27.16,5.11A39.83,39.83,0,0,1,710,177.1q6.19,9.57,6.21,22.81,0,13.08-6.21,22.64a39.83,39.83,0,0,1-17.61,14.67q-11.4,5.11-27.16,5.11H629.52l12.07-12.24V274.7Zm27.16-41.59L629.52,220.2h34.21q12.57,0,18.78-5.37t6.2-14.92q0-9.72-6.2-15.09t-18.78-5.37H629.52l12.07-12.91Z"/><path d="M825.08,274.7a71.34,71.34,0,0,1-25.74-4.53,60.74,60.74,0,0,1-20.46-12.74,58.21,58.21,0,0,1-13.42-19.29,63.37,63.37,0,0,1,0-48.29A57.71,57.71,0,0,1,779,170.56a62.1,62.1,0,0,1,20.46-12.74,74.21,74.21,0,0,1,51.06,0,61.44,61.44,0,0,1,20.29,12.74,61.3,61.3,0,0,1,13.5,67.67,58,58,0,0,1-13.5,19.28,62.07,62.07,0,0,1-20.29,12.66A69.54,69.54,0,0,1,825.08,274.7Zm-.17-23.14a38.23,38.23,0,0,0,14.5-2.69,34.74,34.74,0,0,0,11.66-7.71,35.12,35.12,0,0,0,7.79-11.91,43.39,43.39,0,0,0,0-30.51,35.67,35.67,0,0,0-7.71-11.91,33.78,33.78,0,0,0-11.65-7.71,39,39,0,0,0-14.59-2.69,38.28,38.28,0,0,0-14.51,2.69,34.85,34.85,0,0,0-11.65,7.71,35.29,35.29,0,0,0-7.8,11.91,43.17,43.17,0,0,0,0,30.43,35.83,35.83,0,0,0,7.71,12,33.68,33.68,0,0,0,11.66,7.71A38.88,38.88,0,0,0,824.91,251.56Z"/><path d="M933.6,274.7V157.32h50.81q15.76,0,27.17,5.11a39.75,39.75,0,0,1,17.6,14.67q6.21,9.57,6.21,22.81,0,13.08-6.21,22.55a39.43,39.43,0,0,1-17.6,14.51q-11.42,5-27.17,5H948.69l12.08-11.91V274.7Zm27.17-41.59-12.08-12.74H982.9q12.58,0,18.78-5.45t6.21-15q0-9.72-6.21-15.09t-18.78-5.37H948.69l12.08-12.91Zm47.45,41.59-29.34-42.59h29l29.68,42.59Z"/><path d="M1119.6,274.7V179.45H1082V157.32h102.29v22.13h-37.57V274.7Z"/><polygon points="254.13 97.48 254.13 20.57 177.22 20.57 254.13 97.48"/><path d="M213.74,114.21v91.53L69,61h91.53l-40.4-40.39H0V274.7H254.13V154.61ZM40.4,234.3V89.53L185.17,234.3Z"/><polygon class="cls-1" points="278.71 0 156.79 0 278.71 121.92 278.71 0"/></g></g></svg>