<svg xmlns="http://www.w3.org/2000/svg" viewBox="0 0 290 60"><defs><style>.cls-1{fill:#fff;}.cls-2{fill:none;}</style></defs><g id="Layer_2" data-name="Layer 2"><g id="Isolation_Mode" data-name="Isolation Mode"><path class="cls-1" d="M123,45.9V16.53h12.72a16.55,16.55,0,0,1,6.79,1.28A10,10,0,0,1,147,21.49a10.26,10.26,0,0,1,1.55,5.7A10.1,10.1,0,0,1,147,32.83a9.87,9.87,0,0,1-4.41,3.63,16.73,16.73,0,0,1-6.79,1.26h-8.94l3-3V45.9Zm6.8-10.4-3-3.19h8.56a7,7,0,0,0,4.7-1.36,4.76,4.76,0,0,0,1.55-3.76,4.72,4.72,0,0,0-1.55-3.77,7,7,0,0,0-4.7-1.35h-8.56l3-3.23Zm11.87,10.4-7.34-10.65h7.26l7.43,10.65Z"/><path class="cls-1" d="M174.15,40.46V45.9H152.33V41.57l11.13-10.52c2.56-2.43,3-3.91,3-5.32,0-2.26-1.56-3.59-4.62-3.59a7.07,7.07,0,0,0-6,2.89L151,21.9c2.22-3.26,6.27-5.37,11.46-5.37,6.44,0,10.73,3.31,10.73,8.54,0,2.81-.79,5.37-4.83,9.12l-6.64,6.27Z"/><path class="cls-1" d="M175.9,45.9l12.65-17.44v5l-12.1-16.94h7.73l8.37,11.81-3.24,0,8.24-11.85H205l-12,16.64V28.25L205.66,45.9H197.8l-8.66-12.48h3.11L183.72,45.9Z"/><path class="cls-1" d="M109.09,27.32v10.6L92.32,21.15h10.6l-4.68-4.67H84.34V45.9h29.42V32ZM89,41.23V24.46l16.77,16.77Z"/><polygon class="cls-1" points="116.61 14.1 102.49 14.1 116.61 28.21 116.61 14.1"/><rect class="cls-2" width="290" height="60"/></g></g></svg>